<svg aria-hidden="true" style="position: absolute; width: 0; height: 0; overflow: hidden;" version="1.1" xmlns="http://www.w3.org/2000/svg" xmlns:xlink="http://www.w3.org/1999/xlink">
<defs>
<symbol id="trade-5" viewBox="0 0 32 32">
<path fill="#6a54ff" style="fill: var(--color1, #6a54ff)" d="M8.208 7.37c-0.716-0.716-0.695-1.895 0.138-2.47 1.538-1.063 3.308-1.814 5.218-2.162 0.996-0.182 1.843 0.638 1.843 1.65v5.89c0 1.584-1.915 2.377-3.035 1.257l-4.164-4.164zM6.506 6.429c-0.026 0.026-0.052 0.051-0.077 0.077l0.077-0.077zM7.37 8.209c-0.716-0.716-1.895-0.695-2.47 0.138-1.063 1.538-1.814 3.308-2.162 5.218-0.182 0.995 0.638 1.843 1.65 1.843h5.89c1.584 0 2.377-1.915 1.257-3.035l-4.164-4.164zM2.518 16l0-0.066v0.131l-0-0.066zM7.37 23.791c-0.716 0.716-1.895 0.695-2.47-0.138-1.063-1.538-1.814-3.308-2.162-5.218-0.182-0.996 0.638-1.843 1.65-1.843h5.89c1.584 0 2.377 1.915 1.257 3.035l-4.164 4.164zM6.429 25.494c0.026 0.026 0.051 0.051 0.077 0.077l-0.077-0.077zM8.208 24.629c-0.716 0.716-0.695 1.895 0.138 2.47 1.538 1.063 3.308 1.814 5.218 2.162 0.996 0.182 1.843-0.638 1.843-1.65v-5.89c0-1.584-1.915-2.377-3.035-1.257l-4.164 4.164zM20.465 12.373c-1.12 1.12-0.327 3.035 1.257 3.035h5.89c1.012 0 1.831-0.848 1.65-1.843-0.349-1.91-1.1-3.68-2.162-5.218-0.575-0.833-1.754-0.853-2.47-0.138l-4.164 4.164zM23.791 7.37c0.716-0.716 0.695-1.895-0.138-2.47-1.538-1.063-3.308-1.814-5.218-2.162-0.996-0.182-1.843 0.638-1.843 1.65v5.89c0 1.584 1.915 2.377 3.035 1.257l4.164-4.164zM27.1 23.654c-0.575 0.833-1.754 0.854-2.47 0.138l-4.164-4.164c-1.12-1.12-0.327-3.035 1.257-3.035h5.89c1.012 0 1.831 0.848 1.65 1.843-0.349 1.91-1.1 3.68-2.162 5.218zM19.627 20.465c-1.12-1.12-3.035-0.327-3.035 1.257v5.89c0 1.012 0.848 1.831 1.843 1.65 1.91-0.349 3.68-1.1 5.218-2.162 0.833-0.575 0.854-1.754 0.138-2.47l-4.164-4.164z"></path>
<path fill="#57e1ff" style="fill: var(--color2, #57e1ff); stroke: var(--color3, #000)" stroke="#000" stroke-linejoin="miter" stroke-linecap="butt" stroke-miterlimit="4" stroke-width="0.5926" d="M18.222 2.519c0 1.227-0.995 2.222-2.222 2.222s-2.222-0.995-2.222-2.222c0-1.227 0.995-2.222 2.222-2.222s2.222 0.995 2.222 2.222z"></path>
<path fill="#57e1ff" style="fill: var(--color2, #57e1ff); stroke: var(--color3, #000)" stroke="#000" stroke-linejoin="miter" stroke-linecap="butt" stroke-miterlimit="4" stroke-width="0.5926" d="M18.222 29.481c0 1.227-0.995 2.222-2.222 2.222s-2.222-0.995-2.222-2.222c0-1.227 0.995-2.222 2.222-2.222s2.222 0.995 2.222 2.222z"></path>
<path fill="#57e1ff" style="fill: var(--color2, #57e1ff); stroke: var(--color3, #000)" stroke="#000" stroke-linejoin="miter" stroke-linecap="butt" stroke-miterlimit="4" stroke-width="0.5926" d="M8.038 4.896c0.868 0.868 0.868 2.275 0 3.143s-2.275 0.868-3.143 0c-0.868-0.868-0.868-2.275 0-3.143s2.275-0.868 3.143 0z"></path>
<path fill="#57e1ff" style="fill: var(--color2, #57e1ff); stroke: var(--color3, #000)" stroke="#000" stroke-linejoin="miter" stroke-linecap="butt" stroke-miterlimit="4" stroke-width="0.5926" d="M27.104 23.961c0.868 0.868 0.868 2.275 0 3.143s-2.275 0.868-3.143 0c-0.868-0.868-0.868-2.275 0-3.143s2.275-0.868 3.143 0z"></path>
<path fill="#57e1ff" style="fill: var(--color2, #57e1ff); stroke: var(--color3, #000)" stroke="#000" stroke-linejoin="miter" stroke-linecap="butt" stroke-miterlimit="4" stroke-width="0.5926" d="M2.519 13.778c1.227 0 2.222 0.995 2.222 2.222s-0.995 2.222-2.222 2.222c-1.227 0-2.222-0.995-2.222-2.222s0.995-2.222 2.222-2.222z"></path>
<path fill="#57e1ff" style="fill: var(--color2, #57e1ff); stroke: var(--color3, #000)" stroke="#000" stroke-linejoin="miter" stroke-linecap="butt" stroke-miterlimit="4" stroke-width="0.5926" d="M29.481 13.778c1.227 0 2.222 0.995 2.222 2.222s-0.995 2.222-2.222 2.222c-1.227 0-2.222-0.995-2.222-2.222s0.995-2.222 2.222-2.222z"></path>
<path fill="#57e1ff" style="fill: var(--color2, #57e1ff); stroke: var(--color3, #000)" stroke="#000" stroke-linejoin="miter" stroke-linecap="butt" stroke-miterlimit="4" stroke-width="0.5926" d="M4.896 23.961c0.868-0.868 2.275-0.868 3.143 0s0.868 2.275 0 3.143c-0.868 0.868-2.275 0.868-3.143 0s-0.868-2.275 0-3.143z"></path>
<path fill="#57e1ff" style="fill: var(--color2, #57e1ff); stroke: var(--color3, #000)" stroke="#000" stroke-linejoin="miter" stroke-linecap="butt" stroke-miterlimit="4" stroke-width="0.5926" d="M23.961 4.896c0.868-0.868 2.275-0.868 3.143 0s0.868 2.275 0 3.143c-0.868 0.868-2.275 0.868-3.143 0s-0.868-2.275 0-3.143z"></path>
</symbol>
<symbol id="trade-3" viewBox="0 0 32 32">
<path fill="#6a54ff" style="fill: var(--color1, #6a54ff)" d="M2.286 9.646c0-1.168 0.881-2.148 2.042-2.273l18.286-1.959c1.351-0.145 2.529 0.914 2.529 2.273v10.096c0 1.168-0.881 2.148-2.042 2.273l-18.286 1.959c-1.351 0.145-2.529-0.914-2.529-2.273v-10.096z"></path>
<path fill="#abf0ff" style="fill: var(--color4, #abf0ff)" d="M18.286 8c0 1.578-1.279 2.857-2.857 2.857s-2.857-1.279-2.857-2.857c0-1.578 1.279-2.857 2.857-2.857s2.857 1.279 2.857 2.857z"></path>
<path fill="#abf0ff" style="fill: var(--color4, #abf0ff)" d="M25.143 2.857c0 1.578-1.279 2.857-2.857 2.857s-2.857-1.279-2.857-2.857c0-1.578 1.279-2.857 2.857-2.857s2.857 1.279 2.857 2.857z"></path>
<path fill="#57e1ff" style="fill: var(--color2, #57e1ff); stroke: var(--color5, #030718)" stroke="#030718" stroke-linejoin="miter" stroke-linecap="butt" stroke-miterlimit="4" stroke-width="1.1429" d="M4.571 8.571h22.857c1.578 0 2.857 1.279 2.857 2.857v16c0 1.578-1.279 2.857-2.857 2.857h-22.857c-1.578 0-2.857-1.279-2.857-2.857v-16c0-1.578 1.279-2.857 2.857-2.857z"></path>
<path fill="#030718" style="fill: var(--color5, #030718)" d="M27.429 19.429c0 0.947-0.767 1.714-1.714 1.714s-1.714-0.767-1.714-1.714c0-0.947 0.767-1.714 1.714-1.714s1.714 0.767 1.714 1.714z"></path>
</symbol>
<symbol id="trade-4" viewBox="0 0 32 32">
<path fill="#6a54ff" style="fill: var(--color1, #6a54ff)" d="M-13.714 8h14.857c1.262 0 2.286 1.023 2.286 2.286v11.429c0 1.262-1.023 2.286-2.286 2.286h-14.857c-1.262 0-2.286-1.023-2.286-2.286v-11.429c0-1.262 1.023-2.286 2.286-2.286z"></path>
<path fill="#6a54ff" style="fill: var(--color1, #6a54ff)" d="M30.857 8h14.857c1.262 0 2.286 1.023 2.286 2.286v11.429c0 1.262-1.023 2.286-2.286 2.286h-14.857c-1.262 0-2.286-1.023-2.286-2.286v-11.429c0-1.262 1.023-2.286 2.286-2.286z"></path>
<path fill="#57e1ff" style="fill: var(--color2, #57e1ff)" d="M6.857 6.857h18.286c1.262 0 2.286 1.023 2.286 2.286v13.714c0 1.262-1.023 2.286-2.286 2.286h-18.286c-1.262 0-2.286-1.023-2.286-2.286v-13.714c0-1.262 1.023-2.286 2.286-2.286z"></path>
<path fill="#000" style="fill: var(--color3, #000)" d="M14.198 19.82l5.365-3.059c0.404-0.237 0.605-0.356 0.681-0.506 0.081-0.161 0.081-0.35 0.001-0.511-0.075-0.151-0.277-0.271-0.682-0.512v0l-5.388-3.072c-0.412-0.229-0.619-0.343-0.788-0.331-0.179 0.013-0.341 0.108-0.439 0.259-0.092 0.142-0.092 0.378-0.092 0.849v0 6.118c0 0.474 0 0.711 0.093 0.853 0.098 0.151 0.261 0.246 0.441 0.258 0.169 0.011 0.376-0.105 0.79-0.336l0.018-0.010z"></path>
</symbol>
<symbol id="trade-2" viewBox="0 0 36 32">
<path fill="#6a54ff" style="fill: var(--color1, #6a54ff)" d="M0 2.909c0-1.607 1.302-2.909 2.909-2.909h30.545c1.607 0 2.909 1.302 2.909 2.909v4.364h-36.364v-4.364z"></path>
<path fill="#6a54ff" style="fill: var(--color1, #6a54ff)" d="M18.909 8.727h17.455v20.364c0 1.607-1.302 2.909-2.909 2.909h-14.545v-23.273z"></path>
<path fill="#57e1ff" style="fill: var(--color2, #57e1ff)" d="M0 8.727h17.455v23.273h-14.545c-1.607 0-2.909-1.302-2.909-2.909v-20.364z"></path>
<path fill="none" stroke="#000" style="stroke: var(--color3, #000)" stroke-linejoin="round" stroke-linecap="round" stroke-miterlimit="4" stroke-width="1.4545" d="M10.545 24.727l-4.364-4.364 4.364-4.364"></path>
</symbol>
<symbol id="trade-1" viewBox="0 0 32 32">
<path fill="#6a54ff" style="fill: var(--color1, #6a54ff)" d="M4 1.714h14.286c1.262 0 2.286 1.023 2.286 2.286v14.286c0 1.262-1.023 2.286-2.286 2.286h-14.286c-1.262 0-2.286-1.023-2.286-2.286v-14.286c0-1.262 1.023-2.286 2.286-2.286z"></path>
<path fill="#57e1ff" style="fill: var(--color2, #57e1ff)" d="M13.714 11.429h14.286c1.262 0 2.286 1.023 2.286 2.286v14.286c0 1.262-1.023 2.286-2.286 2.286h-14.286c-1.262 0-2.286-1.023-2.286-2.286v-14.286c0-1.262 1.023-2.286 2.286-2.286z"></path>
<path fill="#fff" style="fill: var(--color6, #fff)" opacity="0.5" d="M11.429 13.714c0-1.262 1.023-2.286 2.286-2.286h6.857v6.857c0 1.262-1.023 2.286-2.286 2.286h-4.571c-1.262 0-2.286-1.023-2.286-2.286v-4.571z"></path>
<path fill="none" stroke="#030718" style="stroke: var(--color5, #030718)" stroke-linejoin="miter" stroke-linecap="butt" stroke-miterlimit="4" stroke-width="0.8571" d="M4 1.714h14.286c1.262 0 2.286 1.023 2.286 2.286v14.286c0 1.262-1.023 2.286-2.286 2.286h-14.286c-1.262 0-2.286-1.023-2.286-2.286v-14.286c0-1.262 1.023-2.286 2.286-2.286z"></path>
<path fill="none" stroke="#030718" style="stroke: var(--color5, #030718)" stroke-linejoin="miter" stroke-linecap="butt" stroke-miterlimit="4" stroke-width="0.8571" d="M13.714 11.429h14.286c1.262 0 2.286 1.023 2.286 2.286v14.286c0 1.262-1.023 2.286-2.286 2.286h-14.286c-1.262 0-2.286-1.023-2.286-2.286v-14.286c0-1.262 1.023-2.286 2.286-2.286z"></path>
</symbol>
<symbol id="logo" viewBox="0 0 73 32">
<path fill="#fff" style="fill: var(--color1, #fff)" d="M31.044 15.533h-3.242l-1.692 7.78h3.492c2.512 0 3.258-1.383 3.267-2.475 0.008-0.951-0.532-1.34-1.042-1.507l0.017-0.086c0.715-0.157 1.582-0.74 1.591-1.94 0.009-1.156-0.885-1.772-2.392-1.772zM28.412 21.724l0.343-1.545h1.379c0.527 0 0.839 0.216 0.836 0.665-0.004 0.465-0.358 0.881-1.104 0.881h-1.453zM29.097 18.591l0.321-1.47h1.272c0.527 0 0.818 0.2 0.815 0.627-0.004 0.443-0.337 0.843-1.098 0.843h-1.309z"></path>
<path fill="#fff" style="fill: var(--color1, #fff)" d="M34.446 15.533l-1.692 7.78h5.574l0.37-1.686h-3.551l1.321-6.094h-2.023z"></path>
<path fill="#fff" style="fill: var(--color1, #fff)" d="M42.262 15.533l-3.814 7.618-0.033 0.162h1.922l0.748-1.621h2.273l0.045 1.621h1.842l0.033-0.162-0.503-7.618h-2.512zM41.842 20.060l1.311-2.837h0.085l0.073 2.837h-1.469z"></path>
<path fill="#fff" style="fill: var(--color1, #fff)" d="M49.103 15.533h-2.188l-1.692 7.78h2.693c3.391 0 4.502-2.529 4.52-4.69 0.016-2.005-1.3-3.090-3.334-3.090zM47.574 21.67l0.968-4.495h0.484c0.937 0 1.47 0.519 1.462 1.507-0.012 1.443-0.737 2.988-2.292 2.988h-0.623z"></path>
<path fill="#fff" style="fill: var(--color1, #fff)" d="M53.56 15.533l-1.692 7.78h5.802l0.343-1.588h-3.822l0.337-1.534h3.215l0.343-1.588h-3.21l0.321-1.48h3.747l0.343-1.588h-5.728z"></path>
<path fill="#fff" style="fill: var(--color1, #fff)" d="M34.163 6.528l-0.359 1.664h2.204l-1.332 6.116h2.001l1.332-6.116h2.204l0.359-1.664h-6.409z"></path>
<path fill="#fff" style="fill: var(--color1, #fff)" d="M43.964 6.528h-3.146l-1.692 7.78h1.959l0.663-3.058h0.106l1.577 3.058h1.985l0.033-0.162-1.589-2.885c1.939-0.162 2.656-1.28 2.667-2.637 0.011-1.34-0.978-2.096-2.565-2.096zM42.058 9.823l0.376-1.707h1.251c0.607 0 0.951 0.243 0.947 0.719-0.004 0.497-0.359 0.989-1.243 0.989h-1.331z"></path>
<path fill="#fff" style="fill: var(--color1, #fff)" d="M48.889 6.528l-3.814 7.618-0.033 0.162h1.921l0.748-1.621h2.273l0.045 1.621h1.842l0.033-0.162-0.503-7.618h-2.512zM48.469 11.055l1.311-2.836h0.085l0.073 2.837h-1.469z"></path>
<path fill="#fff" style="fill: var(--color1, #fff)" d="M55.73 6.528h-2.187l-1.692 7.78h2.693c3.391 0 4.502-2.529 4.52-4.69 0.016-2.005-1.3-3.090-3.334-3.090zM54.201 12.665l0.968-4.495h0.484c0.937 0 1.47 0.519 1.462 1.507-0.012 1.443-0.737 2.988-2.291 2.988h-0.623z"></path>
<path fill="#fff" style="fill: var(--color1, #fff)" d="M60.188 6.528l-1.692 7.78h5.802l0.343-1.588h-3.822l0.337-1.534h3.215l0.343-1.588h-3.21l0.321-1.48h3.748l0.343-1.588h-5.727z"></path>
<path fill="#57e1ff" style="fill: var(--color2, #57e1ff)" d="M14.792 18.794l4.765-8.253h-9.53l4.765 8.253z"></path>
<path fill="#5e47ff" style="fill: var(--color3, #5e47ff)" d="M12.67 23.334l-12.669-21.871 6.293 5.050 8.044 13.933-1.668 2.889z"></path>
<path fill="#5e47ff" style="fill: var(--color3, #5e47ff)" d="M24.562 10.092l-12.607 21.908 1.227-7.975 8.044-13.933h3.336z"></path>
<path fill="#5e47ff" style="fill: var(--color3, #5e47ff)" d="M7.222 6.552l25.276-0.036-7.52 2.925h-16.088l-1.668-2.889z"></path>
</symbol>
<symbol id="checkmark" viewBox="0 0 32 32">
<path fill="none" stroke="#fff" style="stroke: var(--color6, #fff)" stroke-linejoin="round" stroke-linecap="round" stroke-miterlimit="4" stroke-width="3.7333" d="M5.333 17.5l9.899 9.899 14-21"></path>
</symbol>
<symbol id="chevron" viewBox="0 0 32 32">
<path fill="none" stroke="#fff" style="stroke: var(--color6, #fff)" stroke-linejoin="round" stroke-linecap="round" stroke-miterlimit="4" stroke-width="1.8667" d="M8 19.333l8-8 8 8"></path>
</symbol>
<symbol id="circle" viewBox="0 0 28 32">
<path fill="#35ff9e" style="fill: var(--color8, #35ff9e)" d="M28 16c0 7.732-6.268 14-14 14s-14-6.268-14-14c0-7.732 6.268-14 14-14s14 6.268 14 14z"></path>
</symbol>
<symbol id="close" viewBox="0 0 32 32">
<path fill="#fff" style="fill: var(--color6, #fff)" d="M8.74 8.74c0.364-0.364 0.955-0.364 1.32 0l13.199 13.199c0.364 0.364 0.364 0.955 0 1.32s-0.955 0.364-1.32 0l-13.199-13.199c-0.364-0.365-0.364-0.956 0-1.32z"></path>
<path fill="#fff" style="fill: var(--color6, #fff)" d="M8.74 23.26c-0.364-0.364-0.364-0.955 0-1.32l13.199-13.199c0.364-0.364 0.955-0.364 1.32 0s0.364 0.955 0 1.32l-13.199 13.199c-0.364 0.364-0.955 0.364-1.32 0z"></path>
</symbol>
<symbol id="burger" viewBox="0 0 32 32">
<path fill="#e7f7f8" style="fill: var(--color9, #e7f7f8)" d="M4.4 9.333c0-0.515 0.418-0.933 0.933-0.933h21.333c0.515 0 0.933 0.418 0.933 0.933s-0.418 0.933-0.933 0.933h-21.333c-0.515 0-0.933-0.418-0.933-0.933z"></path>
<path fill="#e7f7f8" style="fill: var(--color9, #e7f7f8)" d="M4.4 16c0-0.515 0.418-0.933 0.933-0.933h21.333c0.515 0 0.933 0.418 0.933 0.933s-0.418 0.933-0.933 0.933h-21.333c-0.515 0-0.933-0.418-0.933-0.933z"></path>
<path fill="#e7f7f8" style="fill: var(--color9, #e7f7f8)" d="M4.4 22.666c0-0.515 0.418-0.933 0.933-0.933h21.333c0.515 0 0.933 0.418 0.933 0.933s-0.418 0.933-0.933 0.933h-21.333c-0.515 0-0.933-0.418-0.933-0.933z"></path>
</symbol>
<symbol id="hero" viewBox="0 0 72 32">
<path fill="#6a54ff" style="fill: var(--color1, #6a54ff)" opacity="0.7" d="M2.799 6.687v-3.334h2.135v0.478h-1.595v0.927h1.447v0.478h-1.447v0.974h1.595v0.478h-2.135zM6.676 3.83v2.856h-0.54v-2.856h-0.993v-0.478h2.527v0.478h-0.993zM10.053 5.235h-1.509v1.452h-0.54v-3.334h0.54v1.404h1.509v-1.404h0.54v3.334h-0.54v-1.452zM10.846 7.408l1.323-4.256h0.449l-1.323 4.256h-0.449zM13.534 3.353v2.054c0 0.283 0.054 0.497 0.162 0.64s0.293 0.215 0.554 0.215c0.261 0 0.446-0.072 0.554-0.215s0.162-0.357 0.162-0.64v-2.054h0.53v1.968c0 0.245-0.022 0.457-0.067 0.635s-0.116 0.326-0.215 0.444c-0.099 0.115-0.228 0.201-0.387 0.258-0.156 0.057-0.349 0.086-0.578 0.086s-0.423-0.029-0.583-0.086c-0.156-0.057-0.283-0.143-0.382-0.258-0.099-0.118-0.17-0.266-0.215-0.444s-0.067-0.39-0.067-0.635v-1.968h0.53zM17.105 6.744c-0.28 0-0.519-0.051-0.716-0.153-0.194-0.102-0.361-0.239-0.502-0.411l0.373-0.349c0.118 0.143 0.247 0.252 0.387 0.325 0.143 0.073 0.306 0.11 0.487 0.11 0.213 0 0.374-0.048 0.482-0.143s0.162-0.224 0.162-0.387c0-0.131-0.038-0.234-0.115-0.31s-0.212-0.134-0.406-0.172l-0.296-0.053c-0.325-0.061-0.568-0.167-0.731-0.32s-0.244-0.363-0.244-0.63c0-0.146 0.027-0.279 0.081-0.396 0.057-0.121 0.135-0.221 0.234-0.301 0.102-0.083 0.224-0.146 0.368-0.191s0.304-0.067 0.482-0.067c0.252 0 0.47 0.045 0.654 0.134 0.185 0.086 0.342 0.212 0.473 0.377l-0.377 0.334c-0.086-0.111-0.191-0.201-0.315-0.267s-0.279-0.1-0.463-0.1c-0.191 0-0.339 0.038-0.444 0.115s-0.158 0.188-0.158 0.334c0 0.14 0.043 0.245 0.129 0.315 0.086 0.067 0.22 0.118 0.401 0.153l0.296 0.062c0.334 0.064 0.578 0.172 0.731 0.325 0.156 0.153 0.234 0.363 0.234 0.63 0 0.156-0.027 0.298-0.081 0.425s-0.134 0.237-0.239 0.33c-0.102 0.089-0.228 0.159-0.377 0.21-0.15 0.048-0.32 0.072-0.511 0.072zM18.77 3.353h1.18c0.213 0 0.406 0.035 0.578 0.105 0.175 0.070 0.323 0.175 0.444 0.315 0.124 0.137 0.22 0.31 0.287 0.521 0.067 0.207 0.1 0.449 0.1 0.726s-0.033 0.521-0.1 0.731c-0.067 0.207-0.162 0.38-0.287 0.521-0.121 0.137-0.269 0.24-0.444 0.31-0.172 0.070-0.365 0.105-0.578 0.105h-1.18v-3.334zM19.95 6.209c0.248 0 0.449-0.078 0.602-0.234s0.229-0.385 0.229-0.688v-0.535c0-0.303-0.076-0.532-0.229-0.688s-0.353-0.234-0.602-0.234h-0.64v2.378h0.64zM22.95 3.83v2.856h-0.54v-2.856h-0.993v-0.478h2.527v0.478h-0.994z"></path>
<path fill="#6a54ff" style="fill: var(--color1, #6a54ff)" opacity="0.7" d="M3.285 11.261c-0.176 0-0.326-0.033-0.45-0.099-0.124-0.068-0.23-0.161-0.317-0.279l0.192-0.161c0.077 0.101 0.161 0.179 0.255 0.233 0.093 0.052 0.203 0.078 0.329 0.078 0.155 0 0.273-0.037 0.354-0.112 0.083-0.075 0.124-0.174 0.124-0.298 0-0.103-0.031-0.183-0.093-0.239s-0.165-0.1-0.307-0.133l-0.177-0.040c-0.199-0.046-0.351-0.114-0.456-0.205-0.103-0.093-0.155-0.224-0.155-0.391 0-0.095 0.018-0.18 0.053-0.255s0.084-0.137 0.146-0.186c0.064-0.050 0.14-0.087 0.227-0.112 0.089-0.027 0.186-0.040 0.292-0.040 0.163 0 0.303 0.030 0.419 0.090 0.118 0.060 0.217 0.148 0.298 0.264l-0.196 0.143c-0.060-0.083-0.132-0.148-0.217-0.196s-0.19-0.071-0.317-0.071c-0.139 0-0.248 0.030-0.329 0.090-0.079 0.058-0.118 0.146-0.118 0.264 0 0.103 0.033 0.182 0.099 0.236 0.068 0.052 0.171 0.093 0.307 0.124l0.177 0.040c0.213 0.048 0.367 0.12 0.463 0.217s0.143 0.227 0.143 0.388c0 0.099-0.018 0.189-0.053 0.27-0.033 0.081-0.082 0.149-0.146 0.205s-0.143 0.099-0.236 0.13c-0.091 0.031-0.195 0.047-0.31 0.047zM4.456 8.927h0.248v0.956h0.012c0.039-0.091 0.094-0.164 0.165-0.217 0.072-0.054 0.169-0.081 0.289-0.081 0.166 0 0.296 0.054 0.391 0.161 0.097 0.106 0.146 0.256 0.146 0.45v1.028h-0.248v-0.984c0-0.288-0.121-0.432-0.363-0.432-0.050 0-0.098 0.006-0.146 0.019-0.046 0.012-0.087 0.031-0.124 0.056s-0.067 0.057-0.090 0.096c-0.021 0.037-0.031 0.082-0.031 0.133v1.111h-0.248v-2.297zM6.826 11.261c-0.108 0-0.206-0.020-0.295-0.059s-0.166-0.095-0.23-0.168c-0.062-0.075-0.111-0.162-0.146-0.264-0.035-0.103-0.053-0.219-0.053-0.348 0-0.126 0.018-0.241 0.053-0.345s0.084-0.191 0.146-0.264c0.064-0.075 0.141-0.131 0.23-0.171s0.187-0.059 0.295-0.059c0.108 0 0.205 0.020 0.292 0.059 0.089 0.039 0.166 0.096 0.23 0.171 0.064 0.072 0.114 0.16 0.149 0.264s0.053 0.218 0.053 0.345c0 0.128-0.018 0.244-0.053 0.348-0.035 0.101-0.085 0.189-0.149 0.264-0.064 0.072-0.141 0.128-0.23 0.168-0.087 0.039-0.184 0.059-0.292 0.059zM6.826 11.041c0.135 0 0.244-0.041 0.329-0.124s0.127-0.209 0.127-0.379v-0.23c0-0.17-0.042-0.296-0.127-0.379s-0.195-0.124-0.329-0.124c-0.135 0-0.244 0.041-0.329 0.124s-0.127 0.209-0.127 0.379v0.23c0 0.17 0.042 0.296 0.127 0.379s0.195 0.124 0.329 0.124zM7.957 11.224v-1.602h0.248v0.295h0.016c0.029-0.077 0.081-0.145 0.155-0.205s0.177-0.090 0.307-0.090h0.096v0.248h-0.146c-0.135 0-0.24 0.026-0.317 0.078-0.075 0.050-0.112 0.113-0.112 0.189v1.087h-0.248zM9.463 11.224c-0.087 0-0.153-0.024-0.199-0.071-0.043-0.050-0.065-0.114-0.065-0.192v-1.121h-0.264v-0.217h0.149c0.054 0 0.090-0.010 0.109-0.031 0.021-0.023 0.031-0.061 0.031-0.115v-0.298h0.224v0.444h0.351v0.217h-0.351v1.167h0.326v0.217h-0.31z"></path>
<path fill="#6a54ff" style="fill: var(--color1, #6a54ff)" opacity="0.7" d="M3.587 21.669v-0.946h-0.879v-0.425h0.879v-0.946h0.468v0.946h0.879v0.425h-0.879v0.946h-0.468zM5.481 21.97v-0.449h0.936v-2.493h-0.038l-0.774 0.826-0.33-0.296 0.85-0.922h0.822v2.885h0.812v0.449h-2.278zM9.448 21.97v-0.65h-1.547v-0.463l1.352-2.221h0.707v2.259h0.454v0.425h-0.454v0.65h-0.511zM8.359 20.896h1.089v-1.767h-0.033l-1.056 1.767zM10.827 21.97v-0.449h0.936v-2.493h-0.038l-0.774 0.826-0.33-0.296 0.85-0.922h0.822v2.885h0.812v0.449h-2.278zM13.944 21.97l2.312-3.334h0.482l-2.312 3.334h-0.482zM14.159 20.47c-0.258 0-0.455-0.080-0.592-0.239-0.137-0.162-0.205-0.398-0.205-0.707s0.068-0.543 0.205-0.702c0.137-0.162 0.334-0.244 0.592-0.244s0.455 0.081 0.592 0.244c0.137 0.159 0.205 0.393 0.205 0.702s-0.068 0.544-0.205 0.707c-0.137 0.159-0.334 0.239-0.592 0.239zM14.159 20.15c0.226 0 0.339-0.164 0.339-0.492v-0.267c0-0.328-0.113-0.492-0.339-0.492s-0.339 0.164-0.339 0.492v0.267c0 0.328 0.113 0.492 0.339 0.492zM16.523 22.027c-0.258 0-0.455-0.080-0.592-0.239-0.137-0.162-0.205-0.398-0.205-0.707s0.068-0.543 0.205-0.702c0.137-0.162 0.334-0.244 0.592-0.244s0.455 0.081 0.592 0.244c0.137 0.159 0.205 0.393 0.205 0.702s-0.068 0.544-0.205 0.707c-0.137 0.159-0.334 0.239-0.592 0.239zM16.523 21.707c0.226 0 0.339-0.164 0.339-0.492v-0.267c0-0.328-0.113-0.492-0.339-0.492s-0.339 0.164-0.339 0.492v0.267c0 0.328 0.113 0.492 0.339 0.492z"></path>
<path fill="#6a54ff" style="fill: var(--color1, #6a54ff)" d="M30.567 7.164h40.119c0.528 0 0.955 0.428 0.955 0.955v22.925c0 0.528-0.428 0.955-0.955 0.955h-40.119c-0.528 0-0.955-0.428-0.955-0.955v-22.925c0-0.528 0.428-0.955 0.955-0.955z"></path>
<path fill="#fff" style="fill: var(--color2, #fff)" d="M32.411 13.851v-3.334h2.135v0.478h-1.595v0.927h1.447v0.478h-1.447v0.974h1.595v0.478h-2.135zM36.288 10.995v2.856h-0.54v-2.856h-0.993v-0.478h2.527v0.478h-0.993zM39.665 12.399h-1.509v1.452h-0.54v-3.334h0.54v1.404h1.509v-1.404h0.54v3.334h-0.54v-1.452zM40.458 14.572l1.323-4.256h0.449l-1.323 4.256h-0.449zM43.147 10.517v2.054c0 0.283 0.054 0.497 0.162 0.64s0.293 0.215 0.554 0.215c0.261 0 0.446-0.072 0.554-0.215s0.162-0.357 0.162-0.64v-2.054h0.53v1.968c0 0.245-0.022 0.457-0.067 0.635s-0.116 0.326-0.215 0.444c-0.099 0.115-0.228 0.201-0.387 0.258-0.156 0.057-0.349 0.086-0.578 0.086s-0.424-0.029-0.583-0.086c-0.156-0.057-0.283-0.143-0.382-0.258-0.099-0.118-0.17-0.266-0.215-0.444s-0.067-0.39-0.067-0.635v-1.968h0.53zM46.717 13.908c-0.28 0-0.519-0.051-0.716-0.153-0.194-0.102-0.362-0.239-0.502-0.411l0.373-0.349c0.118 0.143 0.247 0.252 0.387 0.325 0.143 0.073 0.306 0.11 0.487 0.11 0.213 0 0.374-0.048 0.482-0.143s0.162-0.224 0.162-0.387c0-0.131-0.038-0.234-0.115-0.31s-0.212-0.134-0.406-0.172l-0.296-0.053c-0.325-0.060-0.568-0.167-0.731-0.32s-0.244-0.363-0.244-0.63c0-0.146 0.027-0.279 0.081-0.396 0.057-0.121 0.135-0.221 0.234-0.301 0.102-0.083 0.224-0.146 0.368-0.191s0.304-0.067 0.482-0.067c0.251 0 0.469 0.045 0.654 0.134 0.185 0.086 0.342 0.212 0.473 0.377l-0.377 0.334c-0.086-0.111-0.191-0.201-0.315-0.267s-0.279-0.1-0.463-0.1c-0.191 0-0.339 0.038-0.444 0.115s-0.158 0.188-0.158 0.334c0 0.14 0.043 0.245 0.129 0.315 0.086 0.067 0.22 0.118 0.401 0.153l0.296 0.062c0.334 0.064 0.578 0.172 0.731 0.325 0.156 0.153 0.234 0.363 0.234 0.63 0 0.156-0.027 0.298-0.081 0.425s-0.134 0.237-0.239 0.33c-0.102 0.089-0.228 0.159-0.377 0.21-0.15 0.048-0.32 0.072-0.511 0.072zM48.382 10.517h1.18c0.213 0 0.406 0.035 0.578 0.105 0.175 0.070 0.323 0.175 0.444 0.315 0.124 0.137 0.22 0.31 0.287 0.521 0.067 0.207 0.1 0.449 0.1 0.726s-0.033 0.521-0.1 0.731c-0.067 0.207-0.162 0.38-0.287 0.521-0.121 0.137-0.269 0.24-0.444 0.31-0.172 0.070-0.365 0.105-0.578 0.105h-1.18v-3.334zM49.562 13.373c0.248 0 0.449-0.078 0.602-0.234s0.229-0.385 0.229-0.688v-0.535c0-0.303-0.076-0.532-0.229-0.688s-0.353-0.234-0.602-0.234h-0.64v2.378h0.64zM52.562 10.995v2.856h-0.54v-2.856h-0.993v-0.478h2.527v0.478h-0.993z"></path>
<path fill="#fff" style="fill: var(--color2, #fff)" d="M33.199 28.833v-0.946h-0.879v-0.425h0.879v-0.946h0.468v0.946h0.879v0.425h-0.879v0.946h-0.468zM35.093 29.134v-0.449h0.936v-2.493h-0.038l-0.774 0.826-0.33-0.296 0.85-0.922h0.822v2.885h0.812v0.449h-2.278zM37.766 29.134v-0.449h0.936v-2.493h-0.038l-0.774 0.826-0.33-0.296 0.85-0.922h0.822v2.885h0.812v0.449h-2.278zM41.461 29.192c-0.185 0-0.35-0.030-0.497-0.091-0.143-0.060-0.266-0.146-0.368-0.258-0.099-0.115-0.175-0.251-0.229-0.411s-0.081-0.339-0.081-0.54c0-0.242 0.037-0.47 0.11-0.683s0.167-0.409 0.282-0.587 0.242-0.336 0.382-0.473c0.143-0.14 0.283-0.256 0.42-0.349h0.716c-0.188 0.137-0.357 0.269-0.506 0.396s-0.28 0.258-0.392 0.392c-0.112 0.134-0.205 0.275-0.282 0.425-0.073 0.15-0.131 0.314-0.172 0.492l0.033 0.010c0.035-0.067 0.075-0.129 0.119-0.186 0.048-0.060 0.102-0.113 0.162-0.158 0.064-0.045 0.135-0.080 0.215-0.105s0.172-0.038 0.277-0.038c0.14 0 0.269 0.024 0.387 0.072 0.121 0.048 0.224 0.118 0.31 0.21 0.089 0.089 0.158 0.198 0.205 0.325 0.051 0.127 0.076 0.269 0.076 0.425 0 0.169-0.029 0.323-0.086 0.463-0.054 0.137-0.132 0.255-0.234 0.353s-0.226 0.177-0.373 0.234c-0.143 0.054-0.303 0.081-0.478 0.081zM41.461 28.752c0.194 0 0.345-0.051 0.454-0.153 0.108-0.105 0.162-0.258 0.162-0.459v-0.067c0-0.201-0.054-0.352-0.162-0.454-0.108-0.105-0.26-0.158-0.454-0.158s-0.346 0.053-0.454 0.158c-0.108 0.102-0.162 0.253-0.162 0.454v0.067c0 0.201 0.054 0.353 0.162 0.459 0.108 0.102 0.259 0.153 0.454 0.153zM43.556 29.134l2.312-3.334h0.482l-2.312 3.334h-0.482zM43.77 27.635c-0.258 0-0.455-0.080-0.592-0.239-0.137-0.162-0.205-0.398-0.205-0.707s0.068-0.543 0.205-0.702c0.137-0.162 0.334-0.244 0.592-0.244s0.455 0.081 0.592 0.244c0.137 0.159 0.205 0.393 0.205 0.702s-0.069 0.544-0.205 0.707c-0.137 0.159-0.334 0.239-0.592 0.239zM43.77 27.315c0.226 0 0.339-0.164 0.339-0.492v-0.267c0-0.328-0.113-0.492-0.339-0.492s-0.339 0.164-0.339 0.492v0.267c0 0.328 0.113 0.492 0.339 0.492zM46.135 29.192c-0.258 0-0.455-0.080-0.592-0.239-0.137-0.162-0.205-0.398-0.205-0.707s0.068-0.543 0.205-0.702c0.137-0.162 0.334-0.244 0.592-0.244s0.455 0.081 0.592 0.244c0.137 0.159 0.205 0.393 0.205 0.702s-0.069 0.544-0.205 0.707c-0.137 0.159-0.334 0.239-0.592 0.239zM46.135 28.872c0.226 0 0.339-0.164 0.339-0.492v-0.267c0-0.328-0.113-0.492-0.339-0.492s-0.339 0.164-0.339 0.492v0.267c0 0.328 0.113 0.492 0.339 0.492z"></path>
<path fill="#fff" style="fill: var(--color2, #fff)" opacity="0.6" d="M32.897 18.425c-0.176 0-0.326-0.033-0.45-0.099-0.124-0.068-0.23-0.161-0.317-0.279l0.192-0.161c0.077 0.101 0.161 0.179 0.255 0.233 0.093 0.052 0.203 0.078 0.329 0.078 0.155 0 0.273-0.037 0.354-0.112 0.083-0.075 0.124-0.174 0.124-0.298 0-0.103-0.031-0.183-0.093-0.239s-0.165-0.1-0.307-0.134l-0.177-0.040c-0.199-0.046-0.351-0.114-0.456-0.205-0.103-0.093-0.155-0.224-0.155-0.391 0-0.095 0.018-0.18 0.053-0.255s0.084-0.137 0.146-0.186c0.064-0.050 0.14-0.087 0.227-0.112 0.089-0.027 0.186-0.040 0.292-0.040 0.164 0 0.303 0.030 0.419 0.090 0.118 0.060 0.217 0.148 0.298 0.264l-0.196 0.143c-0.060-0.083-0.133-0.148-0.217-0.196s-0.19-0.071-0.317-0.071c-0.139 0-0.248 0.030-0.329 0.090-0.079 0.058-0.118 0.146-0.118 0.264 0 0.103 0.033 0.182 0.099 0.236 0.068 0.052 0.171 0.093 0.307 0.124l0.177 0.040c0.213 0.048 0.367 0.12 0.463 0.217s0.143 0.227 0.143 0.388c0 0.099-0.018 0.189-0.053 0.27-0.033 0.081-0.082 0.149-0.146 0.205s-0.143 0.099-0.236 0.13c-0.091 0.031-0.195 0.047-0.31 0.047zM34.068 16.091h0.248v0.956h0.012c0.039-0.091 0.094-0.163 0.165-0.217 0.072-0.054 0.169-0.081 0.289-0.081 0.166 0 0.296 0.054 0.391 0.161 0.097 0.106 0.146 0.256 0.146 0.45v1.028h-0.248v-0.984c0-0.288-0.121-0.432-0.363-0.432-0.050 0-0.098 0.006-0.146 0.019-0.046 0.012-0.087 0.031-0.124 0.056s-0.067 0.057-0.090 0.096c-0.021 0.037-0.031 0.082-0.031 0.134v1.111h-0.248v-2.297zM36.438 18.425c-0.107 0-0.206-0.020-0.295-0.059s-0.166-0.095-0.23-0.168c-0.062-0.075-0.111-0.162-0.146-0.264-0.035-0.103-0.053-0.219-0.053-0.348 0-0.126 0.018-0.241 0.053-0.345s0.084-0.191 0.146-0.264c0.064-0.075 0.141-0.131 0.23-0.171s0.187-0.059 0.295-0.059c0.108 0 0.205 0.020 0.292 0.059 0.089 0.039 0.166 0.096 0.23 0.171 0.064 0.072 0.114 0.16 0.149 0.264s0.053 0.218 0.053 0.345c0 0.128-0.017 0.244-0.053 0.348-0.035 0.101-0.085 0.189-0.149 0.264-0.064 0.072-0.141 0.128-0.23 0.168-0.087 0.039-0.184 0.059-0.292 0.059zM36.438 18.205c0.135 0 0.244-0.041 0.329-0.124s0.127-0.209 0.127-0.379v-0.23c0-0.17-0.042-0.296-0.127-0.379s-0.194-0.124-0.329-0.124c-0.134 0-0.244 0.041-0.329 0.124s-0.127 0.209-0.127 0.379v0.23c0 0.17 0.042 0.296 0.127 0.379s0.195 0.124 0.329 0.124zM37.569 18.388v-1.602h0.248v0.295h0.016c0.029-0.077 0.081-0.145 0.155-0.205s0.177-0.090 0.307-0.090h0.096v0.248h-0.146c-0.135 0-0.24 0.026-0.317 0.078-0.075 0.050-0.112 0.113-0.112 0.189v1.087h-0.248zM39.075 18.388c-0.087 0-0.153-0.024-0.199-0.071-0.043-0.050-0.065-0.114-0.065-0.192v-1.121h-0.264v-0.217h0.149c0.054 0 0.090-0.010 0.109-0.031 0.021-0.023 0.031-0.061 0.031-0.115v-0.298h0.224v0.444h0.351v0.217h-0.351v1.167h0.326v0.217h-0.31z"></path>
</symbol>
</defs>
</svg>
